HIERARCHY
ROOT Hips
{
	OFFSET 0.000000 87.230942 0.000000
	CHANNELS 6 Xposition Yposition Zposition Xrotation Yrotation Zrotation
	JOINT Pelvis
	{
		OFFSET 0.000000 0.000000 0.000000
		CHANNELS 3 Xrotation Yrotation Zrotation
		JOINT LeftUpLeg
		{
			OFFSET 12.017000 -9.376404 -2.439400
			CHANNELS 3 Xrotation Yrotation Zrotation
			JOINT LeftLeg
			{
				OFFSET -0.007312 -32.846973 2.110600
				CHANNELS 3 Xrotation Yrotation Zrotation
				JOINT LeftFoot
				{
					OFFSET 0.007312 -32.065170 -0.570400
					CHANNELS 3 Xrotation Yrotation Zrotation
					JOINT LeftToeBase
					{
						OFFSET 0.728300 -11.045900 13.180700
						CHANNELS 3 Xrotation Yrotation Zrotation
						End Site
						{
							OFFSET 0.000000 17.212589 0.000000
						}
					}
				}
				JOINT LeftPantLeg
				{
					OFFSET 0.002788 -16.709013 -3.143600
					CHANNELS 3 Xrotation Yrotation Zrotation
					End Site
					{
						OFFSET -0.605125 24.528742 0.000000
					}
				}
			}
			JOINT Left_Butt
			{
				OFFSET -6.630234 1.326584 -3.183700
				CHANNELS 3 Xrotation Yrotation Zrotation
				End Site
				{
					OFFSET -0.498041 20.188049 0.000000
				}
			}
		}
		JOINT RightUpLeg
		{
			OFFSET -11.717000 -9.376404 -2.439400
			CHANNELS 3 Xrotation Yrotation Zrotation
			JOINT RightLeg
			{
				OFFSET -0.003241 -32.846912 2.110600
				CHANNELS 3 Xrotation Yrotation Zrotation
				JOINT RightFoot
				{
					OFFSET 0.003241 -32.065136 -0.570500
					CHANNELS 3 Xrotation Yrotation Zrotation
					JOINT RightToeBase
					{
						OFFSET -0.728300 -11.045901 13.180700
						CHANNELS 3 Xrotation Yrotation Zrotation
						End Site
						{
							OFFSET 0.000000 17.212593 0.000000
						}
					}
				}
				JOINT RightPantLeg
				{
					OFFSET 0.008142 -16.708982 -3.143700
					CHANNELS 3 Xrotation Yrotation Zrotation
					End Site
					{
						OFFSET 0.605088 24.528715 0.000000
					}
				}
			}
			JOINT Right_Butt
			{
				OFFSET 6.630732 1.326584 -3.183700
				CHANNELS 3 Xrotation Yrotation Zrotation
				End Site
				{
					OFFSET 0.498015 20.188240 0.000000
				}
			}
		}
	}
	JOINT Spine
	{
		OFFSET -0.062400 7.848404 3.918300
		CHANNELS 3 Xrotation Yrotation Zrotation
		JOINT Spine1
		{
			OFFSET -0.072800 11.422302 0.713400
			CHANNELS 3 Xrotation Yrotation Zrotation
			JOINT Spine2
			{
				OFFSET -0.083200 13.054001 -1.931600
				CHANNELS 3 Xrotation Yrotation Zrotation
				JOINT Neck
				{
					OFFSET -0.092200 14.121796 -5.138800
					CHANNELS 3 Xrotation Yrotation Zrotation
					JOINT Head
					{
						OFFSET 0.000200 10.447403 -0.842000
						CHANNELS 3 Xrotation Yrotation Zrotation
						JOINT Visor
						{
							OFFSET 0.457100 25.671204 16.550400
							CHANNELS 3 Xrotation Yrotation Zrotation
							End Site
							{
								OFFSET 0.000000 26.061493 0.000000
							}
						}
						JOINT HairMidA
						{
							OFFSET 0.459400 31.585403 8.437400
							CHANNELS 3 Xrotation Yrotation Zrotation
							End Site
							{
								OFFSET 0.000000 26.061493 0.000000
							}
						}
						JOINT HairMidB
						{
							OFFSET 0.464000 33.309204 -8.389700
							CHANNELS 3 Xrotation Yrotation Zrotation
							End Site
							{
								OFFSET 0.000000 26.061493 0.000000
							}
						}
						JOINT HairMidC
						{
							OFFSET 0.466600 27.991196 -17.375099
							CHANNELS 3 Xrotation Yrotation Zrotation
							End Site
							{
								OFFSET 0.000000 26.061493 0.000000
							}
						}
						JOINT HairMidD
						{
							OFFSET 0.467700 17.888092 -21.169500
							CHANNELS 3 Xrotation Yrotation Zrotation
							End Site
							{
								OFFSET 0.000000 26.061493 0.000000
							}
						}
						JOINT HairMidE
						{
							OFFSET 5.325700 3.514603 -14.369699
							CHANNELS 3 Xrotation Yrotation Zrotation
							End Site
							{
								OFFSET 0.000000 26.061493 0.000000
							}
						}
						JOINT HairMidF
						{
							OFFSET -4.394100 3.514603 -14.372400
							CHANNELS 3 Xrotation Yrotation Zrotation
							End Site
							{
								OFFSET 0.000000 26.061493 0.000000
							}
						}
						JOINT HairLeftA
						{
							OFFSET 15.319900 25.746506 2.623300
							CHANNELS 3 Xrotation Yrotation Zrotation
							End Site
							{
								OFFSET 0.000000 26.061493 0.000000
							}
						}
						JOINT HairLeftB
						{
							OFFSET 12.619500 29.289398 -8.731499
							CHANNELS 3 Xrotation Yrotation Zrotation
							End Site
							{
								OFFSET 0.000000 26.061493 0.000000
							}
						}
						JOINT HairLeftC
						{
							OFFSET 15.714800 15.959900 2.909800
							CHANNELS 3 Xrotation Yrotation Zrotation
							End Site
							{
								OFFSET 0.000000 26.061493 0.000000
							}
						}
						JOINT HairLeftD
						{
							OFFSET 16.101700 18.437408 -7.553200
							CHANNELS 3 Xrotation Yrotation Zrotation
							End Site
							{
								OFFSET 0.000000 26.061493 0.000000
							}
						}
						JOINT HairLeftE
						{
							OFFSET 9.731900 17.915009 -18.316799
							CHANNELS 3 Xrotation Yrotation Zrotation
							End Site
							{
								OFFSET 0.000000 26.061493 0.000000
							}
						}
						JOINT HairLeftF
						{
							OFFSET 11.204300 4.953598 -9.668100
							CHANNELS 3 Xrotation Yrotation Zrotation
							End Site
							{
								OFFSET 0.000000 26.061493 0.000000
							}
						}
						JOINT HairRightA
						{
							OFFSET -14.397900 25.746307 2.615100
							CHANNELS 3 Xrotation Yrotation Zrotation
							End Site
							{
								OFFSET 0.000000 26.061493 0.000000
							}
						}
						JOINT HairRightB
						{
							OFFSET -11.691200 29.289200 -8.738199
							CHANNELS 3 Xrotation Yrotation Zrotation
							End Site
							{
								OFFSET 0.000000 26.061493 0.000000
							}
						}
						JOINT HairRightC
						{
							OFFSET -14.792900 15.959702 2.901400
							CHANNELS 3 Xrotation Yrotation Zrotation
							End Site
							{
								OFFSET 0.000000 26.061493 0.000000
							}
						}
						JOINT HairRightD
						{
							OFFSET -15.174000 18.437195 -7.561900
							CHANNELS 3 Xrotation Yrotation Zrotation
							End Site
							{
								OFFSET 0.000000 26.061493 0.000000
							}
						}
						JOINT HairRightE
						{
							OFFSET -8.798200 17.914902 -18.322001
							CHANNELS 3 Xrotation Yrotation Zrotation
							End Site
							{
								OFFSET 0.000000 26.061493 0.000000
							}
						}
						JOINT HairRightF
						{
							OFFSET -10.275200 4.953506 -9.674099
							CHANNELS 3 Xrotation Yrotation Zrotation
							End Site
							{
								OFFSET 0.000000 26.061493 0.000000
							}
						}
					}
				}
				JOINT LeftShoulder
				{
					OFFSET 5.133500 7.341202 -1.867600
					CHANNELS 3 Xrotation Yrotation Zrotation
					JOINT LeftArm
					{
						OFFSET 8.072663 0.936867 -2.176600
						CHANNELS 3 Xrotation Yrotation Zrotation
						JOINT LeftForeArm
						{
							OFFSET 31.271999 0.000000 0.000000
							CHANNELS 3 Xrotation Yrotation Zrotation
							JOINT LeftHand
							{
								OFFSET 31.771030 0.000000 0.000000
								CHANNELS 3 Xrotation Yrotation Zrotation
								JOINT LeftHandThumb1
								{
									OFFSET 2.886520 -2.557846 4.416640
									CHANNELS 3 Xrotation Yrotation Zrotation
									JOINT LeftHandThumb2
									{
										OFFSET 2.371025 -1.368912 1.368911
										CHANNELS 3 Xrotation Yrotation Zrotation
										JOINT LeftHandThumb3
										{
											OFFSET 2.243378 -1.295212 1.295213
											CHANNELS 3 Xrotation Yrotation Zrotation
											End Site
											{
												OFFSET -0.332611 2.876945 0.020015
											}
										}
									}
								}
								JOINT LeftHandIndex1
								{
									OFFSET 8.568985 -0.641945 3.119977
									CHANNELS 3 Xrotation Yrotation Zrotation
									JOINT LeftHandIndex2
									{
										OFFSET 3.348503 0.000000 0.000000
										CHANNELS 3 Xrotation Yrotation Zrotation
										JOINT LeftHandIndex3
										{
											OFFSET 3.314552 0.000000 0.000000
											CHANNELS 3 Xrotation Yrotation Zrotation
											End Site
											{
												OFFSET -1.032898 3.075485 0.678796
											}
										}
									}
								}
								JOINT LeftHandMiddle1
								{
									OFFSET 8.124603 0.000000 0.000000
									CHANNELS 3 Xrotation Yrotation Zrotation
									JOINT LeftHandMiddle2
									{
										OFFSET 4.166275 0.000000 0.000000
										CHANNELS 3 Xrotation Yrotation Zrotation
										JOINT LeftHandMiddle3
										{
											OFFSET 3.018135 0.000000 0.000000
											CHANNELS 3 Xrotation Yrotation Zrotation
											End Site
											{
												OFFSET -1.032700 2.767982 0.617226
											}
										}
									}
								}
								JOINT LeftHandRing1
								{
									OFFSET 8.571686 -0.031357 -2.884048
									CHANNELS 3 Xrotation Yrotation Zrotation
									JOINT LeftHandRing2
									{
										OFFSET 3.671181 0.000000 0.000000
										CHANNELS 3 Xrotation Yrotation Zrotation
										JOINT LeftHandRing3
										{
											OFFSET 2.728851 0.000000 0.000000
											CHANNELS 3 Xrotation Yrotation Zrotation
											End Site
											{
												OFFSET -0.815796 2.539223 0.577389
											}
										}
									}
								}
								JOINT LeftHandPinky1
								{
									OFFSET 7.854515 -0.675232 -5.213020
									CHANNELS 3 Xrotation Yrotation Zrotation
									JOINT LeftHandPinky2
									{
										OFFSET 3.068596 0.000000 0.000000
										CHANNELS 3 Xrotation Yrotation Zrotation
										JOINT LeftHandPinky3
										{
											OFFSET 2.396042 0.000000 0.000000
											CHANNELS 3 Xrotation Yrotation Zrotation
											End Site
											{
												OFFSET -0.524597 2.267998 0.567429
											}
										}
									}
								}
							}
							JOINT LeftSleeve
							{
								OFFSET 19.684509 -0.200119 0.476146
								CHANNELS 3 Xrotation Yrotation Zrotation
								End Site
								{
									OFFSET -0.031017 25.731133 -0.002868
								}
							}
						}
					}
				}
				JOINT RightShoulder
				{
					OFFSET -4.395900 7.341202 -1.870200
					CHANNELS 3 Xrotation Yrotation Zrotation
					JOINT RightArm
					{
						OFFSET -8.071453 0.936867 -2.181100
						CHANNELS 3 Xrotation Yrotation Zrotation
						JOINT RightForeArm
						{
							OFFSET -31.272011 0.000000 0.000000
							CHANNELS 3 Xrotation Yrotation Zrotation
							JOINT RightHand
							{
								OFFSET -31.771019 0.000000 0.000000
								CHANNELS 3 Xrotation Yrotation Zrotation
								JOINT RightHandThumb1
								{
									OFFSET -2.886520 -2.557808 4.416626
									CHANNELS 3 Xrotation Yrotation Zrotation
									JOINT RightHandThumb2
									{
										OFFSET -2.371056 -1.368927 1.368928
										CHANNELS 3 Xrotation Yrotation Zrotation
										JOINT RightHandThumb3
										{
											OFFSET -2.243362 -1.295204 1.295206
											CHANNELS 3 Xrotation Yrotation Zrotation
											End Site
											{
												OFFSET 0.332642 2.876938 0.020047
											}
										}
									}
								}
								JOINT RightHandIndex1
								{
									OFFSET -8.568993 -0.641953 3.120017
									CHANNELS 3 Xrotation Yrotation Zrotation
									JOINT RightHandIndex2
									{
										OFFSET -3.348518 0.000000 0.000000
										CHANNELS 3 Xrotation Yrotation Zrotation
										JOINT RightHandIndex3
										{
											OFFSET -3.314552 0.000000 0.000000
											CHANNELS 3 Xrotation Yrotation Zrotation
											End Site
											{
												OFFSET 1.032898 3.075478 0.678804
											}
										}
									}
								}
								JOINT RightHandMiddle1
								{
									OFFSET -8.124588 0.000000 0.000000
									CHANNELS 3 Xrotation Yrotation Zrotation
									JOINT RightHandMiddle2
									{
										OFFSET -4.166275 0.000000 0.000000
										CHANNELS 3 Xrotation Yrotation Zrotation
										JOINT RightHandMiddle3
										{
											OFFSET -3.018097 0.000000 0.000000
											CHANNELS 3 Xrotation Yrotation Zrotation
											End Site
											{
												OFFSET 1.032700 2.767937 0.617197
											}
										}
									}
								}
								JOINT RightHandRing1
								{
									OFFSET -8.571747 -0.031349 -2.884061
									CHANNELS 3 Xrotation Yrotation Zrotation
									JOINT RightHandRing2
									{
										OFFSET -3.671204 0.000000 0.000000
										CHANNELS 3 Xrotation Yrotation Zrotation
										JOINT RightHandRing3
										{
											OFFSET -2.728874 0.000000 0.000000
											CHANNELS 3 Xrotation Yrotation Zrotation
											End Site
											{
												OFFSET 0.815804 2.539261 0.577413
											}
										}
									}
								}
								JOINT RightHandPinky1
								{
									OFFSET -7.854561 -0.675247 -5.212970
									CHANNELS 3 Xrotation Yrotation Zrotation
									JOINT RightHandPinky2
									{
										OFFSET -3.068550 0.000000 0.000000
										CHANNELS 3 Xrotation Yrotation Zrotation
										JOINT RightHandPinky3
										{
											OFFSET -2.395981 0.000000 0.000000
											CHANNELS 3 Xrotation Yrotation Zrotation
											End Site
											{
												OFFSET 0.524605 2.267952 0.567413
											}
										}
									}
								}
							}
							JOINT RightSleeve
							{
								OFFSET -19.684753 -0.200165 0.476065
								CHANNELS 3 Xrotation Yrotation Zrotation
								End Site
								{
									OFFSET 0.031342 25.731255 -0.002917
								}
							}
						}
					}
				}
				JOINT Hood
				{
					OFFSET 0.369700 14.447800 -5.317800
					CHANNELS 3 Xrotation Yrotation Zrotation
					JOINT Hood1
					{
						OFFSET 0.001700 -5.553802 -5.895100
						CHANNELS 3 Xrotation Yrotation Zrotation
						JOINT Hood2
						{
							OFFSET -0.000200 -8.380501 0.763600
							CHANNELS 3 Xrotation Yrotation Zrotation
							End Site
							{
								OFFSET 0.000000 8.415215 0.000000
							}
						}
					}
				}
				JOINT Left_Breast
				{
					OFFSET 5.682500 3.120102 3.188800
					CHANNELS 3 Xrotation Yrotation Zrotation
					End Site
					{
						OFFSET 0.000000 10.528564 0.000000
					}
				}
				JOINT Right_Breast
				{
					OFFSET -4.947600 3.120102 3.185900
					CHANNELS 3 Xrotation Yrotation Zrotation
					End Site
					{
						OFFSET 0.000000 10.528564 0.000000
					}
				}
				JOINT Whistle
				{
					OFFSET 0.368200 11.471298 0.095400
					CHANNELS 3 Xrotation Yrotation Zrotation
					JOINT Whistle1
					{
						OFFSET -0.002000 -6.349899 7.479800
						CHANNELS 3 Xrotation Yrotation Zrotation
						JOINT Whistle2
						{
							OFFSET -0.001300 -8.217598 4.717600
							CHANNELS 3 Xrotation Yrotation Zrotation
							End Site
							{
								OFFSET 0.000000 9.475479 0.000000
							}
						}
					}
				}
			}
		}
		JOINT Belly
		{
			OFFSET 0.212400 1.593002 3.163700
			CHANNELS 3 Xrotation Yrotation Zrotation
			End Site
			{
				OFFSET 0.000000 7.496635 0.000000
			}
		}
	}
	JOINT FitGrandmaFacialAnim_Joint
	{
		OFFSET 1.150000 -86.211197 -1.220100
		CHANNELS 3 Xrotation Yrotation Zrotation
		End Site
		{
			OFFSET 0.000000 31.666618 0.000000
		}
	}
}
MOTION
Frames: 4
Frame Time: 0.016667
0.843849 80.363464 5.259155 26.289263 11.743267 2.100129 -0.000001 -0.000000 0.000000 -39.236725 10.128405 12.894856 42.144169 9.030861 -5.333302 1.430306 22.459622 -18.075501 0.000001 0.000001 0.000000 0.000000 0.000006 0.000002 0.000000 -0.000003 0.000000 -61.330167 -12.598801 -11.442133 39.486772 3.933490 -4.750616 -5.054270 -9.904913 -0.061066 -0.000000 -0.000000 -0.000000 -0.000000 0.000000 0.000000 0.000000 0.000000 -0.000000 11.255491 -1.409826 0.709896 9.276078 2.486269 -1.078451 9.399700 1.253081 -3.812949 -9.096157 7.493537 -0.883478 -27.171302 1.769068 -6.727666 -0.000000 -0.000000 0.000000 -0.000000 -0.000000 0.000000 -0.000000 -0.000000 0.000000 -0.000000 -0.000000 0.000000 -0.000000 -0.000000 0.000000 -0.000000 -0.000000 0.000000 -0.000000 -0.000000 0.000000 -0.000000 -0.000000 0.000000 -0.000000 -0.000000 0.000000 -0.000000 -0.000000 0.000000 -0.000000 -0.000000 0.000000 -0.000000 -0.000000 0.000000 -0.000000 -0.000000 0.000000 -0.000000 -0.000000 0.000000 -0.000000 -0.000000 0.000000 -0.000000 -0.000000 0.000000 -0.000000 -0.000000 0.000000 -0.000000 -0.000000 0.000000 -0.000000 -0.000000 0.000000 0.803797 0.857155 -9.303941 -29.535893 -3.682380 -62.075116 -0.000001 -41.672787 -0.000001 20.410303 8.999549 -6.096319 -6.000716 -6.126806 4.616756 7.450094 23.644290 2.310996 -0.000001 0.000002 -0.000000 1.311403 -4.551195 -15.849346 1.142357 3.477091 -36.365146 0.000000 -0.000001 0.000002 0.477003 4.520330 -21.613198 1.655968 4.082384 -44.144479 -0.000001 0.000000 0.000000 2.993455 9.713629 -25.720717 1.694448 4.121585 -44.682213 0.000001 0.000001 -0.000003 -10.154159 18.200856 -22.286620 1.656841 4.083293 -44.156842 -0.000000 0.000002 -0.000000 -0.000000 -0.000000 0.000001 5.720869 24.427847 1.421184 -24.663772 -14.041402 65.136434 -0.000012 37.034279 0.000015 11.717750 14.064658 -10.776514 -5.141682 1.887954 -6.280725 7.832898 -27.003879 -3.053139 0.000000 0.000003 0.000000 9.420624 2.591770 6.997312 0.448782 -1.996478 25.335323 0.000001 0.000000 0.000003 0.141875 -3.212529 11.503908 0.448784 -1.996456 25.335320 0.000002 0.000000 0.000000 1.475366 -6.489822 23.742028 0.450097 -1.999235 25.372794 -0.000003 0.000000 -0.000000 -12.523761 -9.712310 30.059690 0.448780 -1.996448 25.335316 -0.000001 -0.000000 -0.000000 -0.000000 -0.000000 0.000000 0.000001 0.000000 -0.000000 0.000001 0.000000 -0.000000 0.000001 0.000000 -0.000000 0.000001 0.000000 -0.000000 0.000001 0.000000 -0.000000 0.000001 0.000000 0.000000 0.000002 0.000000 -0.000000 0.000002 0.000000 -0.000000 0.000001 -0.000000 0.000000 -0.000001 -0.000000 0.000000 
0.765451 81.239258 6.455128 26.213134 12.072950 2.342227 -0.000000 0.000000 -0.000000 -39.610094 10.362141 11.587921 39.509154 9.039791 -5.322473 1.416118 23.961492 -18.512845 0.000000 0.000001 0.000000 -0.000001 -0.000001 0.000001 -0.000001 -0.000001 0.000001 -58.813208 -12.791484 -11.369407 37.163766 4.133546 -4.790646 -5.167894 -10.306493 0.162112 -0.000000 0.000000 0.000000 -0.000000 -0.000000 -0.000000 0.000002 -0.000000 -0.000000 10.880870 -0.937184 0.744852 9.270622 2.730510 -1.057022 9.403914 1.489582 -3.792867 -9.298692 7.419095 -1.033893 -26.919036 0.659608 -7.172825 0.000000 -0.000000 -0.000000 0.000000 -0.000000 -0.000000 0.000000 -0.000000 -0.000000 0.000000 -0.000000 -0.000000 0.000000 -0.000000 -0.000000 0.000000 -0.000000 -0.000000 0.000000 -0.000000 -0.000000 0.000000 -0.000000 -0.000000 0.000000 -0.000000 -0.000000 0.000000 -0.000000 -0.000000 0.000000 -0.000000 -0.000000 0.000000 -0.000000 -0.000000 0.000000 -0.000000 -0.000000 0.000000 -0.000000 -0.000000 0.000000 -0.000000 -0.000000 0.000000 -0.000000 -0.000000 0.000000 -0.000000 -0.000000 0.000000 -0.000000 -0.000000 0.000000 -0.000000 -0.000000 0.819701 0.837071 -9.277597 -28.935707 -1.468103 -61.169767 0.000006 -41.886668 0.000013 28.314179 8.850564 -10.911675 -6.000713 -6.126803 4.616737 7.450096 23.644290 2.310996 0.000000 0.000002 0.000000 1.332691 -4.478277 -16.588805 1.170434 3.514832 -36.825672 0.000002 -0.000001 0.000000 0.494562 4.563969 -22.073433 1.678327 4.105230 -44.457688 0.000000 -0.000001 -0.000004 3.034014 9.729422 -26.036584 1.710892 4.138118 -44.910751 -0.000000 0.000001 -0.000001 -10.114129 18.209715 -22.521290 1.669238 4.095998 -44.330728 -0.000000 -0.000001 -0.000000 -0.000001 0.000000 -0.000001 5.725888 24.411904 1.390778 -24.662573 -15.375722 64.479957 -0.000012 37.223192 -0.000014 10.068238 13.567046 -10.840897 -5.210753 2.102424 -6.162659 7.832903 -27.003873 -3.053135 0.000002 0.000002 0.000000 9.420650 2.591770 6.997315 0.458709 -2.017296 25.618865 0.000002 -0.000003 0.000001 0.144111 -3.223366 11.639853 0.454455 -2.008360 25.497144 0.000000 -0.000000 -0.000002 1.483119 -6.495727 23.847361 0.454594 -2.008684 25.501539 -0.000001 -0.000002 0.000001 -12.459868 -9.795190 30.147150 0.452427 -2.004134 25.439799 0.000001 0.000002 0.000001 0.000001 0.000000 0.000000 -0.000001 0.000001 -0.000000 -0.000001 0.000001 -0.000000 -0.000001 0.000001 -0.000000 -0.000001 0.000001 -0.000000 -0.000001 0.000001 -0.000000 -0.000002 0.000001 0.000000 0.000003 0.000000 0.000000 0.000003 0.000000 0.000000 0.000003 0.000001 0.000000 -0.000000 0.000000 -0.000000 
0.876868 82.038589 7.998636 26.028429 12.620584 2.499737 -0.000001 -0.000000 -0.000000 -39.592821 10.503285 10.478170 36.666634 8.671802 -5.303862 2.869789 25.439895 -19.639478 0.000001 -0.000000 -0.000000 0.000001 -0.000001 -0.000000 -0.000002 0.000000 0.000001 -56.184296 -13.114773 -11.583011 35.418294 4.035741 -4.824106 -5.889456 -10.472108 0.556835 0.000000 -0.000001 -0.000000 0.000000 -0.000000 0.000000 0.000001 -0.000000 0.000000 10.467946 -0.315246 0.876986 9.248251 2.964294 -0.996379 9.387522 1.751387 -3.651128 -9.472121 7.196017 -1.232978 -26.658556 -0.579036 -7.669380 -0.000001 0.000002 -0.000001 -0.000001 0.000002 -0.000001 -0.000001 0.000002 -0.000001 -0.000001 0.000002 -0.000001 -0.000001 0.000002 -0.000001 -0.000001 0.000002 -0.000001 -0.000001 0.000002 -0.000001 -0.000001 0.000002 -0.000001 -0.000001 0.000002 -0.000001 -0.000001 0.000002 -0.000001 -0.000001 0.000002 -0.000001 -0.000001 0.000002 -0.000001 -0.000001 0.000002 -0.000001 -0.000001 0.000002 -0.000001 -0.000001 0.000002 -0.000001 -0.000001 0.000002 -0.000001 -0.000001 0.000002 -0.000001 -0.000001 0.000002 -0.000001 -0.000001 0.000002 -0.000001 0.864117 0.779457 -9.200430 -27.914309 0.938273 -60.038503 -0.000005 -42.148862 0.000001 33.782809 8.315936 -15.356963 -6.000722 -6.126807 4.616751 7.450095 23.644290 2.310994 -0.000000 0.000001 -0.000000 1.391887 -4.291529 -18.495558 1.247197 3.614879 -38.060068 -0.000002 0.000000 -0.000001 0.543316 4.680220 -23.307003 1.740270 4.167270 -45.316563 -0.000004 0.000001 -0.000003 3.145651 9.771631 -26.902655 1.757061 4.183778 -45.546959 0.000003 -0.000000 -0.000003 -10.003823 18.233506 -23.175402 1.704324 4.131496 -44.819729 -0.000001 -0.000000 -0.000005 0.000000 -0.000000 0.000004 5.738791 24.365539 1.303485 -24.740730 -16.700530 63.463263 0.000001 37.406494 0.000002 8.192585 12.947384 -10.997481 -5.403159 2.694642 -5.834626 7.832906 -27.003870 -3.053139 0.000002 0.000002 -0.000000 9.420630 2.591771 6.997312 0.486708 -2.074624 26.402897 -0.000001 0.000001 0.000001 0.150452 -3.253696 12.020575 0.470608 -2.041868 25.954584 0.000001 -0.000001 -0.000002 1.505052 -6.512340 24.145038 0.467521 -2.035558 25.867912 0.000002 -0.000000 -0.000003 -12.276611 -10.030117 30.396954 0.462944 -2.026072 25.738840 0.000001 -0.000001 0.000000 0.000003 -0.000000 0.000000 0.000002 -0.000000 -0.000000 0.000002 -0.000000 -0.000000 0.000002 -0.000000 -0.000000 0.000002 -0.000000 -0.000000 0.000002 -0.000000 -0.000000 0.000002 -0.000000 -0.000000 0.000002 -0.000000 0.000001 0.000002 -0.000000 0.000001 -0.000002 -0.000000 -0.000001 -0.000001 -0.000000 -0.000000 
1.015536 82.780746 9.532158 25.746576 13.387003 2.589983 -0.000000 0.000000 0.000000 -39.616631 10.554750 9.460774 33.743884 7.844876 -5.282667 4.728763 27.596085 -20.692982 0.000000 -0.000001 0.000000 0.000001 -0.000003 0.000001 -0.000001 -0.000000 -0.000002 -53.504208 -13.601597 -11.895310 33.766072 4.157720 -4.853061 -6.663898 -10.946248 0.936246 -0.000000 -0.000000 -0.000000 0.000001 -0.000000 -0.000000 0.000001 0.000001 -0.000000 10.128026 0.418031 1.083100 9.210884 3.190162 -0.903508 9.351845 2.036275 -3.375822 -9.624997 6.855368 -1.477743 -26.488034 -1.955140 -8.210934 0.000000 -0.000002 -0.000000 0.000000 -0.000002 -0.000000 0.000000 -0.000002 -0.000000 0.000000 -0.000002 -0.000000 0.000000 -0.000002 -0.000000 0.000000 -0.000002 -0.000000 0.000000 -0.000002 -0.000000 0.000000 -0.000002 -0.000000 0.000000 -0.000002 -0.000000 0.000000 -0.000002 -0.000000 0.000000 -0.000002 -0.000000 0.000000 -0.000002 -0.000000 0.000000 -0.000002 -0.000000 0.000000 -0.000002 -0.000000 0.000000 -0.000002 -0.000000 0.000000 -0.000002 -0.000000 0.000000 -0.000002 -0.000000 0.000000 -0.000002 -0.000000 0.000000 -0.000002 -0.000000 0.932218 0.688370 -9.075190 -26.479330 3.102035 -58.698427 0.000002 -42.443004 0.000007 35.621465 7.717631 -18.708696 -6.000724 -6.126815 4.616725 7.450093 23.644288 2.310991 -0.000001 -0.000000 0.000005 1.482839 -4.039574 -21.102394 1.362124 3.756736 -39.847710 0.000002 0.000000 -0.000001 0.618365 4.846607 -25.093458 1.834571 4.258215 -46.600086 -0.000001 -0.000001 -0.000002 3.311820 9.828185 -28.197189 1.828407 4.252419 -46.516785 -0.000001 -0.000003 -0.000000 -9.839270 18.267257 -24.172214 1.759080 4.185743 -45.574816 -0.000000 -0.000001 0.000002 0.000001 0.000000 -0.000003 5.756290 24.290974 1.165176 -24.886540 -18.127291 62.390185 0.000002 37.716687 -0.000010 6.128159 12.171674 -11.084196 -5.697780 3.587373 -5.334402 7.832904 -27.003873 -3.053135 -0.000003 0.000002 0.000001 9.420637 2.591782 6.997335 0.530462 -2.160489 27.587351 -0.000001 -0.000001 0.000001 0.160633 -3.300170 12.605217 0.496245 -2.093720 26.665369 0.000001 -0.000001 -0.000000 1.539352 -6.537920 24.607539 0.488135 -2.077499 26.442241 -0.000000 -0.000002 -0.000001 -11.985061 -10.395326 30.791094 0.479774 -2.060601 26.210837 -0.000003 0.000000 -0.000001 -0.000001 -0.000000 -0.000000 -0.000001 0.000000 0.000001 -0.000001 0.000000 0.000001 -0.000001 0.000000 0.000001 -0.000001 0.000000 0.000001 -0.000001 0.000000 0.000001 -0.000001 -0.000000 0.000001 0.000002 -0.000002 -0.000000 0.000002 -0.000002 -0.000000 0.000002 0.000001 0.000000 -0.000000 0.000000 0.000000 
